<svg xmlns="http://www.w3.org/2000/svg" width="36.817" height="34.249" viewBox="0 0 36.817 34.249">
    <g id="Icon_metro-outline_home" data-name="Icon metro-outline_home" transform="translate(-0.696 -0.488)" fill="none">
        <path d="M35.638,20.928,19.1,8.094,2.571,20.928V15.7L19.1,2.861,35.638,15.7ZM31.5,20.461v12.4H23.238V24.595H14.971v8.267H6.7v-12.4l12.4-9.3Z" stroke="none"/>
        <path d="M 31.50447654724121 32.86138153076172 L 31.50447654724121 20.46119117736816 L 19.10428619384766 11.16105175018311 L 6.70409631729126 20.46119117736816 L 6.70409631729126 32.86138153076172 L 14.97088623046875 32.86138153076172 L 14.97088623046875 24.59459114074707 L 23.23768615722656 24.59459114074707 L 23.23768615722656 32.86138153076172 L 31.50447654724121 32.86138153076172 M 2.570696115493774 20.92768096923828 L 19.10428619384766 8.093871116638184 L 35.63787460327148 20.92762184143066 L 35.63787460327148 15.69519138336182 L 19.10428619384766 2.861381530761719 L 2.570696115493774 15.69513130187988 L 2.570696115493774 20.92768096923828 M 33.37947463989258 34.73638153076172 L 21.36268615722656 34.73638153076172 L 21.36268615722656 26.46959114074707 L 16.84588623046875 26.46959114074707 L 16.84588623046875 34.73638153076172 L 4.82909631729126 34.73638153076172 L 4.82909631729126 21.54823684692383 L 0.6956961750984192 24.75669097900391 L 0.6956961750984192 14.7769718170166 L 19.10428619384766 0.4878015220165253 L 37.51287460327148 14.77703189849854 L 37.51287460327148 24.75661087036133 L 33.37947463989258 21.54817390441895 L 33.37947463989258 34.73638153076172 Z" stroke="none" fill="#acacac"/>
    </g>
</svg>
