<svg xmlns="http://www.w3.org/2000/svg" width="27.248" height="24.209" viewBox="0 0 27.248 24.209"><path d="M28.305,26.458a2.762,2.762,0,0,0,1.514,2.464V29.3a5.631,5.631,0,0,1-4.854-1.7,7.6,7.6,0,0,1-1.958.254c-3.762,0-6.812-2.711-6.812-6.055s3.05-6.055,6.812-6.055,6.812,2.711,6.812,6.055a5.585,5.585,0,0,1-1.262,3.512,2.747,2.747,0,0,0-.252,1.152ZM14.681,5.143c6.586,0,11.944,4.272,12.106,9.592a9.281,9.281,0,0,0-3.781-.793A9.014,9.014,0,0,0,17,16.169a7.472,7.472,0,0,0-2.6,5.625,7.258,7.258,0,0,0,.656,3.022c-.124,0-.248.005-.372.005a14.956,14.956,0,0,1-1.888-.119c-2.6,2.6-5.706,3.068-8.708,3.136V27.2c1.621-.794,3.028-2.241,3.028-3.894a4.568,4.568,0,0,0-.051-.679,9.263,9.263,0,0,1-4.49-7.647c0-5.434,5.422-9.839,12.11-9.839Z" transform="translate(-2.571 -5.143)"/></svg>