<svg xmlns="http://www.w3.org/2000/svg" width="37.526" height="33.76" viewBox="0 0 37.526 33.76">
    <g id="Icon_metro-outline_bubbles" data-name="Icon metro-outline_bubbles" transform="translate(-0.691 -3.263)" fill="none" stroke-linejoin="round">
        <path d="M34.462,31.557a3.576,3.576,0,0,0,1.83,3.03c-.214-.119-.086-.043.046.491l-.041.005-.912.06a6.956,6.956,0,0,1-5.063-2.177,9.424,9.424,0,0,1-2.426.315c-4.662,0-8.442-3.359-8.442-7.5s3.779-7.5,8.442-7.5,8.442,3.359,8.442,7.5a6.922,6.922,0,0,1-1.564,4.352,3.4,3.4,0,0,0-.312,1.427ZM17.579,5.143c8.162,0,14.8,5.294,15,11.886a11.5,11.5,0,0,0-4.685-.982,11.17,11.17,0,0,0-7.449,2.76,9.26,9.26,0,0,0-3.22,6.971,8.994,8.994,0,0,0,.813,3.746c-.153,0-.307.006-.461.006a18.535,18.535,0,0,1-2.34-.148c-3.224,3.224-7.071,3.8-10.792,3.887h0A7.141,7.141,0,0,0,8.2,27.654a5.661,5.661,0,0,0-.063-.841,11.479,11.479,0,0,1-5.564-9.476C2.571,10.6,9.29,5.143,17.579,5.143Z" stroke="none"/>
        <path d="M 35.38491058349609 35.14285659790039 L 36.29676055908203 35.08314514160156 L 36.33752059936523 35.07767486572266 C 36.20507049560547 34.54329299926758 36.07758712768555 34.46769714355469 36.29116058349609 34.58652496337891 C 35.05376052856445 33.7680778503418 34.46162033081055 32.73173522949219 34.46162033081055 31.55678749084473 L 34.46163177490234 31.55678749084473 C 34.46163177490234 31.0471363067627 34.57360076904297 30.56385612487793 34.77361297607422 30.12935638427734 C 35.75822067260742 28.90198707580566 36.33752059936523 27.39998626708984 36.33752059936523 25.77768707275391 C 36.33752059936523 21.63360595703125 32.55812072753906 18.27411651611328 27.8960018157959 18.27411651611328 C 23.23387145996094 18.27411651611328 19.45447158813477 21.63360595703125 19.45447158813477 25.77768707275391 C 19.45447158813477 29.92177581787109 23.23387145996094 33.28126525878906 27.8960018157959 33.28126525878906 C 28.73945236206055 33.28126525878906 29.55370140075684 33.1707649230957 30.32229232788086 32.96611785888672 C 31.5936107635498 34.30667495727539 33.39154052734375 35.14285659790039 35.38491058349609 35.14285659790039 M 4.44732141494751 33.26813507080078 C 8.167631149291992 33.18325805664062 12.01532173156738 32.60518646240234 15.23887157440186 29.38163566589355 C 16.00136184692383 29.47864723205566 16.78261184692383 29.52947616577148 17.57858085632324 29.52947616577148 C 17.73299217224121 29.52947616577148 17.88658142089844 29.52695655822754 18.0398120880127 29.52326583862305 C 17.506591796875 28.35376739501953 17.22685241699219 27.08706665039062 17.22685241699219 25.77768707275391 C 17.22685241699219 23.12834739685059 18.37044143676758 20.65268707275391 20.44700241088867 18.80692672729492 C 22.44957160949707 17.02681732177734 25.09505081176758 16.04648590087891 27.8960018157959 16.04648590087891 C 29.54473114013672 16.04648590087891 31.13936233520508 16.38649749755859 32.5809326171875 17.02898597717285 C 32.38032150268555 10.43680667877197 25.74042129516602 5.142856597900391 17.57858085632324 5.142856597900391 C 9.290351867675781 5.142856597900391 2.571431636810303 10.60199642181396 2.571431636810303 17.33616638183594 C 2.571431636810303 21.16269683837891 4.741601467132568 24.57711601257324 8.13568115234375 26.81247711181641 C 8.176891326904297 27.08700752258301 8.199111938476562 27.3676872253418 8.199111938476562 27.65358734130859 C 8.199111938476562 29.70229721069336 6.45617151260376 32.283935546875 4.44732141494751 33.26813507080078 M 35.38491058349609 37.02285766601562 C 34.14863204956055 37.02285766601562 32.95153045654297 36.77242660522461 31.82689094543457 36.27851486206055 C 31.07781028747559 35.94955062866211 30.38597297668457 35.52407455444336 29.76004219055176 35.00818252563477 C 29.14684295654297 35.10994338989258 28.52322387695312 35.1612663269043 27.8960018157959 35.1612663269043 C 25.18026161193848 35.1612663269043 22.61683082580566 34.21210479736328 20.67793083190918 32.4886360168457 C 20.14377021789551 32.01382827758789 19.67378234863281 31.49612426757812 19.27159118652344 30.94355010986328 C 18.94568061828613 31.22616195678711 18.52761650085449 31.39206504821777 18.0850715637207 31.4027271270752 C 17.89370155334473 31.40732574462891 17.73276138305664 31.40947723388672 17.57858085632324 31.40947723388672 C 17.01944541931152 31.40947723388672 16.45754814147949 31.38633918762207 15.89951038360596 31.34048271179199 C 12.29377841949463 34.53165435791016 8.129751205444336 35.06461334228516 4.490201473236084 35.14764785766602 C 3.607681512832642 35.16780090332031 2.829981565475464 34.5711669921875 2.620841503143311 33.71352767944336 C 2.411701679229736 32.85589599609375 2.827441692352295 31.9682559967041 3.620181560516357 31.57986640930176 C 4.923152923583984 30.94150543212891 6.203028202056885 29.13422012329102 6.311657905578613 27.82816886901855 C 4.731693744659424 26.64793014526367 3.413901329040527 25.21362113952637 2.46869158744812 23.63825607299805 C 1.28939163684845 21.67275619506836 0.6914315819740295 19.55242729187012 0.6914315819740295 17.33616638183594 C 0.6914315819740295 15.38482666015625 1.159681558609009 13.49590682983398 2.083191633224487 11.72188663482666 C 2.958361625671387 10.04070663452148 4.202621459960938 8.537866592407227 5.781401634216309 7.255106449127197 C 8.949941635131836 4.680666446685791 13.13959121704102 3.262856483459473 17.57858085632324 3.262856483459473 C 21.94402122497559 3.262856483459473 26.08336067199707 4.640276432037354 29.23409080505371 7.141396522521973 C 30.80323219299316 8.387016296386719 32.05327224731445 9.849686622619629 32.94947052001953 11.48879623413086 C 33.89366149902344 13.21564674377441 34.40188980102539 15.06039619445801 34.46006011962891 16.9718074798584 C 34.47414398193359 17.43445205688477 34.31735229492188 17.87898826599121 34.03020858764648 18.22652816772461 C 34.40919876098633 18.48174476623535 34.77146530151367 18.76221466064453 35.11406326293945 19.06674575805664 C 37.11536026000977 20.84567642211914 38.21752166748047 23.22900581359863 38.21752166748047 25.77768707275391 C 38.21752166748047 27.68774795532227 37.59618759155273 29.5140438079834 36.41766357421875 31.07741928100586 C 36.36714935302734 31.23107719421387 36.34163284301758 31.39166450500488 36.34163284301758 31.55678749084473 C 36.34163284301758 31.77808570861816 36.34162139892578 32.36587524414062 37.32830047607422 33.01848602294922 C 37.89438629150391 33.39291381835938 38.19367218017578 34.02299499511719 38.17007446289062 34.6579704284668 C 38.28668975830078 35.16701889038086 38.18634033203125 35.70222854614258 37.89208984375 36.1348876953125 C 37.59158325195312 36.57677841186523 37.11722183227539 36.86989593505859 36.58757019042969 36.94097518920898 L 36.54681015014648 36.94644546508789 C 36.50457000732422 36.95211791992188 36.46214294433594 36.95634841918945 36.41960144042969 36.95912551879883 L 35.50775146484375 37.01883697509766 C 35.46686172485352 37.02151489257812 35.4258918762207 37.02285766601562 35.38491058349609 37.02285766601562 Z" stroke="none" fill="#acacac"/>
    </g>
</svg>
